# This file uses centimeters as units for non-parametric coordinates.

mtllib navepantalla.mtl
g default
v 0.595098 5.164235 11.444000
v 0.000000 5.164235 11.444000
v -0.595098 5.164235 11.444000
v -1.190195 5.164235 11.444000
v -1.785293 5.164235 11.444000
v -2.380391 5.164235 11.444000
v -2.975488 5.164235 11.444000
v 1.190195 5.334822 11.444000
v 0.595098 5.334822 11.444000
v 0.000000 5.334822 11.444000
v -0.595098 5.334822 11.444000
v -1.190195 5.334822 11.444000
v -1.785293 5.334822 11.444000
v -2.380391 5.334822 11.444000
v -2.975488 5.334822 11.444000
v 2.380391 5.505409 11.444000
v 1.785293 5.505409 11.444000
v 1.190195 5.505409 11.444000
v 0.595098 5.505409 11.444000
v 0.000000 5.505409 11.444000
v -0.595098 5.505409 11.444000
v -1.190195 5.505409 11.444000
v -1.785293 5.505409 11.444000
v -2.380391 5.505409 11.444000
v -2.975488 5.505409 11.444000
v 2.975488 5.675996 11.444000
v 2.380391 5.675996 11.444000
v 1.785293 5.675996 11.444000
v 1.190195 5.675996 11.444000
v 0.595098 5.675996 11.444000
v 0.000000 5.675996 11.444000
v -0.595098 5.675996 11.444000
v -1.190195 5.675996 11.444000
v -1.785293 5.675996 11.444000
v -2.380391 5.675996 11.444000
v -2.975488 5.675996 11.444000
v 2.975488 5.846583 11.444000
v 2.380391 5.846583 11.444000
v 1.785293 5.846583 11.444000
v 1.190195 5.846583 11.444000
v 0.595098 5.846583 11.444000
v 0.000000 5.846583 11.444000
v -0.595098 5.846583 11.444000
v -1.190195 5.846583 11.444000
v -1.785293 5.846583 11.444000
v -2.380391 5.846583 11.444000
v -2.975488 5.846583 11.444000
v 2.975488 6.017170 11.444000
v 2.380391 6.017170 11.444000
v 1.785293 6.017170 11.444000
v 1.190195 6.017170 11.444000
v 0.595098 6.017170 11.444000
v -0.000000 6.017170 11.444000
v -0.595098 6.017170 11.444000
v -1.190195 6.017170 11.444000
v -1.785293 6.017170 11.444000
v -2.380391 6.017170 11.444000
v 2.975488 6.187757 11.444000
v 2.380391 6.187757 11.444000
v 1.785293 6.187757 11.444000
v 1.190195 6.187757 11.444000
v 0.595098 6.187757 11.444000
v -0.000000 6.187757 11.444000
v -0.595098 6.187757 11.444000
v -1.190195 6.187757 11.444000
v -1.785293 6.187757 11.444000
v -2.380391 6.187757 11.444000
v 2.975488 6.358344 11.444000
v 2.380391 6.358344 11.444000
v 1.785293 6.358344 11.444000
v 1.190195 6.358344 11.444000
v 0.595098 6.358344 11.444000
v -0.000000 6.358344 11.444000
v -0.595098 6.358344 11.444000
v -1.190195 6.358344 11.444000
v 2.380391 6.528932 11.444000
v 1.785293 6.528932 11.444000
v 1.190195 6.528932 11.444000
v 0.595098 6.528932 11.444000
v -0.000000 6.528932 11.444000
v -0.595098 6.528932 11.444000
v -1.190195 6.528932 11.444000
v 2.380391 6.699519 11.444000
v 1.785293 6.699519 11.444000
v 1.190195 6.699519 11.444000
v 0.595098 6.699519 11.444000
v -0.000000 6.699519 11.444000
v -0.595098 6.699519 11.444000
vt 0.400000 0.100000
vt 0.500000 0.100000
vt 0.600000 0.100000
vt 0.700000 0.100000
vt 0.800000 0.100000
vt 0.900000 0.100000
vt 1.000000 0.100000
vt 0.300000 0.200000
vt 0.400000 0.200000
vt 0.500000 0.200000
vt 0.600000 0.200000
vt 0.700000 0.200000
vt 0.800000 0.200000
vt 0.900000 0.200000
vt 1.000000 0.200000
vt 0.100000 0.300000
vt 0.200000 0.300000
vt 0.300000 0.300000
vt 0.400000 0.300000
vt 0.500000 0.300000
vt 0.600000 0.300000
vt 0.700000 0.300000
vt 0.800000 0.300000
vt 0.900000 0.300000
vt 1.000000 0.300000
vt 0.000000 0.400000
vt 0.100000 0.400000
vt 0.200000 0.400000
vt 0.300000 0.400000
vt 0.400000 0.400000
vt 0.500000 0.400000
vt 0.600000 0.400000
vt 0.700000 0.400000
vt 0.800000 0.400000
vt 0.900000 0.400000
vt 1.000000 0.400000
vt 0.000000 0.500000
vt 0.100000 0.500000
vt 0.200000 0.500000
vt 0.300000 0.500000
vt 0.400000 0.500000
vt 0.500000 0.500000
vt 0.600000 0.500000
vt 0.700000 0.500000
vt 0.800000 0.500000
vt 0.900000 0.500000
vt 1.000000 0.500000
vt 0.000000 0.600000
vt 0.100000 0.600000
vt 0.200000 0.600000
vt 0.300000 0.600000
vt 0.400000 0.600000
vt 0.500000 0.600000
vt 0.600000 0.600000
vt 0.700000 0.600000
vt 0.800000 0.600000
vt 0.900000 0.600000
vt 0.000000 0.700000
vt 0.100000 0.700000
vt 0.200000 0.700000
vt 0.300000 0.700000
vt 0.400000 0.700000
vt 0.500000 0.700000
vt 0.600000 0.700000
vt 0.700000 0.700000
vt 0.800000 0.700000
vt 0.900000 0.700000
vt 0.000000 0.800000
vt 0.100000 0.800000
vt 0.200000 0.800000
vt 0.300000 0.800000
vt 0.400000 0.800000
vt 0.500000 0.800000
vt 0.600000 0.800000
vt 0.700000 0.800000
vt 0.100000 0.900000
vt 0.200000 0.900000
vt 0.300000 0.900000
vt 0.400000 0.900000
vt 0.500000 0.900000
vt 0.600000 0.900000
vt 0.700000 0.900000
vt 0.100000 1.000000
vt 0.200000 1.000000
vt 0.300000 1.000000
vt 0.400000 1.000000
vt 0.500000 1.000000
vt 0.600000 1.000000
vn 0.000000 0.000000 -1.000000
vn 0.000000 0.000000 -1.000000
vn 0.000000 0.000000 -1.000000
vn 0.000000 0.000000 -1.000000
vn 0.000000 0.000000 -1.000000
vn 0.000000 0.000000 -1.000000
vn 0.000000 0.000000 -1.000000
vn 0.000000 0.000000 -1.000000
vn 0.000000 0.000000 -1.000000
vn 0.000000 0.000000 -1.000000
vn 0.000000 0.000000 -1.000000
vn 0.000000 0.000000 -1.000000
vn 0.000000 0.000000 -1.000000
vn 0.000000 0.000000 -1.000000
vn 0.000000 0.000000 -1.000000
vn 0.000000 0.000000 -1.000000
vn 0.000000 0.000000 -1.000000
vn 0.000000 0.000000 -1.000000
vn 0.000000 0.000000 -1.000000
vn 0.000000 0.000000 -1.000000
vn 0.000000 0.000000 -1.000000
vn 0.000000 0.000000 -1.000000
vn 0.000000 0.000000 -1.000000
vn 0.000000 0.000000 -1.000000
vn 0.000000 0.000000 -1.000000
vn 0.000000 0.000000 -1.000000
vn 0.000000 0.000000 -1.000000
vn 0.000000 0.000000 -1.000000
vn 0.000000 0.000000 -1.000000
vn 0.000000 0.000000 -1.000000
vn 0.000000 0.000000 -1.000000
vn 0.000000 0.000000 -1.000000
vn 0.000000 0.000000 -1.000000
vn 0.000000 0.000000 -1.000000
vn 0.000000 0.000000 -1.000000
vn 0.000000 0.000000 -1.000000
vn 0.000000 0.000000 -1.000000
vn 0.000000 0.000000 -1.000000
vn 0.000000 0.000000 -1.000000
vn 0.000000 0.000000 -1.000000
vn 0.000000 0.000000 -1.000000
vn 0.000000 0.000000 -1.000000
vn 0.000000 0.000000 -1.000000
vn 0.000000 0.000000 -1.000000
vn 0.000000 0.000000 -1.000000
vn 0.000000 0.000000 -1.000000
vn 0.000000 0.000000 -1.000000
vn 0.000000 0.000000 -1.000000
vn 0.000000 0.000000 -1.000000
vn 0.000000 0.000000 -1.000000
vn 0.000000 0.000000 -1.000000
vn 0.000000 0.000000 -1.000000
vn 0.000000 0.000000 -1.000000
vn 0.000000 0.000000 -1.000000
vn 0.000000 0.000000 -1.000000
vn 0.000000 0.000000 -1.000000
vn 0.000000 0.000000 -1.000000
vn 0.000000 0.000000 -1.000000
vn 0.000000 0.000000 -1.000000
vn 0.000000 0.000000 -1.000000
vn 0.000000 0.000000 -1.000000
vn 0.000000 0.000000 -1.000000
vn 0.000000 0.000000 -1.000000
vn 0.000000 0.000000 -1.000000
vn 0.000000 0.000000 -1.000000
vn 0.000000 0.000000 -1.000000
vn 0.000000 0.000000 -1.000000
vn 0.000000 0.000000 -1.000000
vn 0.000000 0.000000 -1.000000
vn 0.000000 0.000000 -1.000000
vn 0.000000 0.000000 -1.000000
vn 0.000000 0.000000 -1.000000
vn 0.000000 0.000000 -1.000000
vn 0.000000 0.000000 -1.000000
vn 0.000000 0.000000 -1.000000
vn 0.000000 0.000000 -1.000000
vn 0.000000 0.000000 -1.000000
vn 0.000000 0.000000 -1.000000
vn 0.000000 0.000000 -1.000000
vn 0.000000 0.000000 -1.000000
vn 0.000000 0.000000 -1.000000
vn 0.000000 0.000000 -1.000000
vn 0.000000 0.000000 -1.000000
vn 0.000000 0.000000 -1.000000
vn 0.000000 0.000000 -1.000000
vn 0.000000 0.000000 -1.000000
vn 0.000000 0.000000 -1.000000
vn 0.000000 0.000000 -1.000000
s 1
g pPlane60
usemtl phong9SG
f 1/1/1 2/2/2 10/10/3 9/9/4
f 2/2/2 3/3/5 11/11/6 10/10/3
f 3/3/5 4/4/7 12/12/8 11/11/6
f 4/4/7 5/5/9 13/13/10 12/12/8
f 5/5/9 6/6/11 14/14/12 13/13/10
f 6/6/11 7/7/13 15/15/14 14/14/12
f 8/8/15 9/9/4 19/19/16 18/18/17
f 9/9/4 10/10/3 20/20/18 19/19/16
f 10/10/3 11/11/6 21/21/19 20/20/18
f 11/11/6 12/12/8 22/22/20 21/21/19
f 12/12/8 13/13/10 23/23/21 22/22/20
f 13/13/10 14/14/12 24/24/22 23/23/21
f 14/14/12 15/15/14 25/25/23 24/24/22
f 16/16/24 17/17/25 28/28/26 27/27/27
f 17/17/25 18/18/17 29/29/28 28/28/26
f 18/18/17 19/19/16 30/30/29 29/29/28
f 19/19/16 20/20/18 31/31/30 30/30/29
f 20/20/18 21/21/19 32/32/31 31/31/30
f 21/21/19 22/22/20 33/33/32 32/32/31
f 22/22/20 23/23/21 34/34/33 33/33/32
f 23/23/21 24/24/22 35/35/34 34/34/33
f 24/24/22 25/25/23 36/36/35 35/35/34
f 26/26/36 27/27/27 38/38/37 37/37/38
f 27/27/27 28/28/26 39/39/39 38/38/37
f 28/28/26 29/29/28 40/40/40 39/39/39
f 29/29/28 30/30/29 41/41/41 40/40/40
f 30/30/29 31/31/30 42/42/42 41/41/41
f 31/31/30 32/32/31 43/43/43 42/42/42
f 32/32/31 33/33/32 44/44/44 43/43/43
f 33/33/32 34/34/33 45/45/45 44/44/44
f 34/34/33 35/35/34 46/46/46 45/45/45
f 35/35/34 36/36/35 47/47/47 46/46/46
f 37/37/38 38/38/37 49/49/48 48/48/49
f 38/38/37 39/39/39 50/50/50 49/49/48
f 39/39/39 40/40/40 51/51/51 50/50/50
f 40/40/40 41/41/41 52/52/52 51/51/51
f 41/41/41 42/42/42 53/53/53 52/52/52
f 42/42/42 43/43/43 54/54/54 53/53/53
f 43/43/43 44/44/44 55/55/55 54/54/54
f 44/44/44 45/45/45 56/56/56 55/55/55
f 45/45/45 46/46/46 57/57/57 56/56/56
f 48/48/49 49/49/48 59/59/58 58/58/59
f 49/49/48 50/50/50 60/60/60 59/59/58
f 50/50/50 51/51/51 61/61/61 60/60/60
f 51/51/51 52/52/52 62/62/62 61/61/61
f 52/52/52 53/53/53 63/63/63 62/62/62
f 53/53/53 54/54/54 64/64/64 63/63/63
f 54/54/54 55/55/55 65/65/65 64/64/64
f 55/55/55 56/56/56 66/66/66 65/65/65
f 56/56/56 57/57/57 67/67/67 66/66/66
f 58/58/59 59/59/58 69/69/68 68/68/69
f 59/59/58 60/60/60 70/70/70 69/69/68
f 60/60/60 61/61/61 71/71/71 70/70/70
f 61/61/61 62/62/62 72/72/72 71/71/71
f 62/62/62 63/63/63 73/73/73 72/72/72
f 63/63/63 64/64/64 74/74/74 73/73/73
f 64/64/64 65/65/65 75/75/75 74/74/74
f 69/69/68 70/70/70 77/77/76 76/76/77
f 70/70/70 71/71/71 78/78/78 77/77/76
f 71/71/71 72/72/72 79/79/79 78/78/78
f 72/72/72 73/73/73 80/80/80 79/79/79
f 73/73/73 74/74/74 81/81/81 80/80/80
f 74/74/74 75/75/75 82/82/82 81/81/81
f 76/76/77 77/77/76 84/84/83 83/83/84
f 77/77/76 78/78/78 85/85/85 84/84/83
f 78/78/78 79/79/79 86/86/86 85/85/85
f 79/79/79 80/80/80 87/87/87 86/86/86
f 80/80/80 81/81/81 88/88/88 87/87/87
g default
v 1.190200 5.164600 11.444000
v 0.595100 5.164600 11.444000
v 0.000000 5.164600 11.444000
v -0.595100 5.164600 11.444000
v -1.190200 5.164600 11.444000
v -1.785300 5.164600 11.444000
v -2.380400 5.164600 11.444000
v -2.975500 5.164600 11.444000
v 1.190200 5.335200 11.444000
v 0.595100 5.335200 11.444000
v 0.000000 5.335200 11.444000
v -0.595100 5.335200 11.444000
v -1.190200 5.335200 11.444000
v -1.785300 5.335200 11.444000
v -2.380400 5.335200 11.444000
v -2.975500 5.335200 11.444000
v 2.975500 5.505800 11.444000
v 2.380400 5.505800 11.444000
v 1.785300 5.505800 11.444000
v 1.190200 5.505800 11.444000
v 0.595100 5.505800 11.444000
v 0.000000 5.505800 11.444000
v -0.595100 5.505800 11.444000
v -1.190200 5.505800 11.444000
v -1.785300 5.505800 11.444000
v -2.380400 5.505800 11.444000
v -2.975500 5.505800 11.444000
v 2.975500 5.676400 11.444000
v 2.380400 5.676400 11.444000
v 1.785300 5.676400 11.444000
v 1.190200 5.676400 11.444000
v 0.595100 5.676400 11.444000
v 0.000000 5.676400 11.444000
v -0.595100 5.676400 11.444000
v -1.190200 5.676400 11.444000
v -1.785300 5.676400 11.444000
v -2.380400 5.676400 11.444000
v -2.975500 5.676400 11.444000
v 2.975500 5.847000 11.444000
v 2.380400 5.847000 11.444000
v 1.785300 5.847000 11.444000
v 1.190200 5.847000 11.444000
v 0.595100 5.847000 11.444000
v 0.000000 5.847000 11.444000
v -0.595100 5.847000 11.444000
v -1.190200 5.847000 11.444000
v -1.785300 5.847000 11.444000
v -2.380400 5.847000 11.444000
v -2.975500 5.847000 11.444000
v 2.975500 6.017600 11.444000
v 2.380400 6.017600 11.444000
v 1.785300 6.017600 11.444000
v 1.190200 6.017600 11.444000
v 0.595100 6.017600 11.444000
v -0.000000 6.017600 11.444000
v -0.595100 6.017600 11.444000
v -1.190200 6.017600 11.444000
v -1.785300 6.017600 11.444000
v -2.380400 6.017600 11.444000
v -2.975500 6.017600 11.444000
v 2.975500 6.188200 11.444000
v 2.380400 6.188200 11.444000
v 1.785300 6.188200 11.444000
v 1.190200 6.188200 11.444000
v 0.595100 6.188200 11.444000
v -0.000000 6.188200 11.444000
v -0.595100 6.188200 11.444000
v -1.190200 6.188200 11.444000
v -1.785300 6.188200 11.444000
v -2.380400 6.188200 11.444000
v -2.975500 6.188200 11.444000
v 2.975500 6.358800 11.444000
v 2.380400 6.358800 11.444000
v 1.785300 6.358800 11.444000
v 1.190200 6.358800 11.444000
v 0.595100 6.358800 11.444000
v -0.000000 6.358800 11.444000
v -0.595100 6.358800 11.444000
v -1.190200 6.358800 11.444000
v -1.785300 6.358800 11.444000
v -2.380400 6.358800 11.444000
v -2.975500 6.358800 11.444000
v 2.380400 6.529400 11.444000
v 1.785300 6.529400 11.444000
v 1.190200 6.529400 11.444000
v 0.595100 6.529400 11.444000
v -0.000000 6.529400 11.444000
v -0.595100 6.529400 11.444000
v -1.190200 6.529400 11.444000
v -1.785300 6.529400 11.444000
v -2.380400 6.529400 11.444000
v -2.975500 6.529400 11.444000
v 2.380400 6.700000 11.444000
v 1.785300 6.700000 11.444000
v 1.190200 6.700000 11.444000
v 0.595100 6.700000 11.444000
v -0.000000 6.700000 11.444000
v -0.595100 6.700000 11.444000
v -1.190200 6.700000 11.444000
v -1.785300 6.700000 11.444000
v -2.380400 6.700000 11.444000
v -2.975500 6.700000 11.444000
vt 0.300000 0.100000
vt 0.400000 0.100000
vt 0.500000 0.100000
vt 0.600000 0.100000
vt 0.700000 0.100000
vt 0.800000 0.100000
vt 0.900000 0.100000
vt 1.000000 0.100000
vt 0.300000 0.200000
vt 0.400000 0.200000
vt 0.500000 0.200000
vt 0.600000 0.200000
vt 0.700000 0.200000
vt 0.800000 0.200000
vt 0.900000 0.200000
vt 1.000000 0.200000
vt 0.000000 0.300000
vt 0.100000 0.300000
vt 0.200000 0.300000
vt 0.300000 0.300000
vt 0.400000 0.300000
vt 0.500000 0.300000
vt 0.600000 0.300000
vt 0.700000 0.300000
vt 0.800000 0.300000
vt 0.900000 0.300000
vt 1.000000 0.300000
vt 0.000000 0.400000
vt 0.100000 0.400000
vt 0.200000 0.400000
vt 0.300000 0.400000
vt 0.400000 0.400000
vt 0.500000 0.400000
vt 0.600000 0.400000
vt 0.700000 0.400000
vt 0.800000 0.400000
vt 0.900000 0.400000
vt 1.000000 0.400000
vt 0.000000 0.500000
vt 0.100000 0.500000
vt 0.200000 0.500000
vt 0.300000 0.500000
vt 0.400000 0.500000
vt 0.500000 0.500000
vt 0.600000 0.500000
vt 0.700000 0.500000
vt 0.800000 0.500000
vt 0.900000 0.500000
vt 1.000000 0.500000
vt 0.000000 0.600000
vt 0.100000 0.600000
vt 0.200000 0.600000
vt 0.300000 0.600000
vt 0.400000 0.600000
vt 0.500000 0.600000
vt 0.600000 0.600000
vt 0.700000 0.600000
vt 0.800000 0.600000
vt 0.900000 0.600000
vt 1.000000 0.600000
vt 0.000000 0.700000
vt 0.100000 0.700000
vt 0.200000 0.700000
vt 0.300000 0.700000
vt 0.400000 0.700000
vt 0.500000 0.700000
vt 0.600000 0.700000
vt 0.700000 0.700000
vt 0.800000 0.700000
vt 0.900000 0.700000
vt 1.000000 0.700000
vt 0.000000 0.800000
vt 0.100000 0.800000
vt 0.200000 0.800000
vt 0.300000 0.800000
vt 0.400000 0.800000
vt 0.500000 0.800000
vt 0.600000 0.800000
vt 0.700000 0.800000
vt 0.800000 0.800000
vt 0.900000 0.800000
vt 1.000000 0.800000
vt 0.100000 0.900000
vt 0.200000 0.900000
vt 0.300000 0.900000
vt 0.400000 0.900000
vt 0.500000 0.900000
vt 0.600000 0.900000
vt 0.700000 0.900000
vt 0.800000 0.900000
vt 0.900000 0.900000
vt 1.000000 0.900000
vt 0.100000 1.000000
vt 0.200000 1.000000
vt 0.300000 1.000000
vt 0.400000 1.000000
vt 0.500000 1.000000
vt 0.600000 1.000000
vt 0.700000 1.000000
vt 0.800000 1.000000
vt 0.900000 1.000000
vt 1.000000 1.000000
vn 0.000000 0.000000 -1.000000
vn 0.000000 0.000000 -1.000000
vn 0.000000 0.000000 -1.000000
vn 0.000000 0.000000 -1.000000
vn 0.000000 0.000000 -1.000000
vn 0.000000 0.000000 -1.000000
vn 0.000000 0.000000 -1.000000
vn 0.000000 0.000000 -1.000000
vn 0.000000 0.000000 -1.000000
vn 0.000000 0.000000 -1.000000
vn 0.000000 0.000000 -1.000000
vn 0.000000 0.000000 -1.000000
vn 0.000000 0.000000 -1.000000
vn 0.000000 0.000000 -1.000000
vn 0.000000 0.000000 -1.000000
vn 0.000000 0.000000 -1.000000
vn 0.000000 0.000000 -1.000000
vn 0.000000 0.000000 -1.000000
vn 0.000000 0.000000 -1.000000
vn 0.000000 0.000000 -1.000000
vn 0.000000 0.000000 -1.000000
vn 0.000000 0.000000 -1.000000
vn 0.000000 0.000000 -1.000000
vn 0.000000 0.000000 -1.000000
vn 0.000000 0.000000 -1.000000
vn 0.000000 0.000000 -1.000000
vn 0.000000 0.000000 -1.000000
vn 0.000000 0.000000 -1.000000
vn 0.000000 0.000000 -1.000000
vn 0.000000 0.000000 -1.000000
vn 0.000000 0.000000 -1.000000
vn 0.000000 0.000000 -1.000000
vn 0.000000 0.000000 -1.000000
vn 0.000000 0.000000 -1.000000
vn 0.000000 0.000000 -1.000000
vn 0.000000 0.000000 -1.000000
vn 0.000000 0.000000 -1.000000
vn 0.000000 0.000000 -1.000000
vn 0.000000 0.000000 -1.000000
vn 0.000000 0.000000 -1.000000
vn 0.000000 0.000000 -1.000000
vn 0.000000 0.000000 -1.000000
vn 0.000000 0.000000 -1.000000
vn 0.000000 0.000000 -1.000000
vn 0.000000 0.000000 -1.000000
vn 0.000000 0.000000 -1.000000
vn 0.000000 0.000000 -1.000000
vn 0.000000 0.000000 -1.000000
vn 0.000000 0.000000 -1.000000
vn 0.000000 0.000000 -1.000000
vn 0.000000 0.000000 -1.000000
vn 0.000000 0.000000 -1.000000
vn 0.000000 0.000000 -1.000000
vn 0.000000 0.000000 -1.000000
vn 0.000000 0.000000 -1.000000
vn 0.000000 0.000000 -1.000000
vn 0.000000 0.000000 -1.000000
vn 0.000000 0.000000 -1.000000
vn 0.000000 0.000000 -1.000000
vn 0.000000 0.000000 -1.000000
vn 0.000000 0.000000 -1.000000
vn 0.000000 0.000000 -1.000000
vn 0.000000 0.000000 -1.000000
vn 0.000000 0.000000 -1.000000
vn 0.000000 0.000000 -1.000000
vn 0.000000 0.000000 -1.000000
vn 0.000000 0.000000 -1.000000
vn 0.000000 0.000000 -1.000000
vn 0.000000 0.000000 -1.000000
vn 0.000000 0.000000 -1.000000
vn 0.000000 0.000000 -1.000000
vn 0.000000 0.000000 -1.000000
vn 0.000000 0.000000 -1.000000
vn 0.000000 0.000000 -1.000000
vn 0.000000 0.000000 -1.000000
vn 0.000000 0.000000 -1.000000
vn 0.000000 0.000000 -1.000000
vn 0.000000 0.000000 -1.000000
vn 0.000000 0.000000 -1.000000
vn 0.000000 0.000000 -1.000000
vn 0.000000 0.000000 -1.000000
vn 0.000000 0.000000 -1.000000
vn 0.000000 0.000000 -1.000000
vn 0.000000 0.000000 -1.000000
vn 0.000000 0.000000 -1.000000
vn 0.000000 0.000000 -1.000000
vn 0.000000 0.000000 -1.000000
vn 0.000000 0.000000 -1.000000
vn 0.000000 0.000000 -1.000000
vn 0.000000 0.000000 -1.000000
vn 0.000000 0.000000 -1.000000
vn 0.000000 0.000000 -1.000000
vn 0.000000 0.000000 -1.000000
vn 0.000000 0.000000 -1.000000
vn 0.000000 0.000000 -1.000000
vn 0.000000 0.000000 -1.000000
vn 0.000000 0.000000 -1.000000
vn 0.000000 0.000000 -1.000000
vn 0.000000 0.000000 -1.000000
vn 0.000000 0.000000 -1.000000
vn 0.000000 0.000000 -1.000000
vn 0.000000 0.000000 -1.000000
s 1
g pPlane61
usemtl phong9SG
f 89/89/89 90/90/90 98/98/91 97/97/92
f 90/90/90 91/91/93 99/99/94 98/98/91
f 91/91/93 92/92/95 100/100/96 99/99/94
f 92/92/95 93/93/97 101/101/98 100/100/96
f 93/93/97 94/94/99 102/102/100 101/101/98
f 94/94/99 95/95/101 103/103/102 102/102/100
f 95/95/101 96/96/103 104/104/104 103/103/102
f 97/97/92 98/98/91 109/109/105 108/108/106
f 98/98/91 99/99/94 110/110/107 109/109/105
f 99/99/94 100/100/96 111/111/108 110/110/107
f 100/100/96 101/101/98 112/112/109 111/111/108
f 101/101/98 102/102/100 113/113/110 112/112/109
f 102/102/100 103/103/102 114/114/111 113/113/110
f 103/103/102 104/104/104 115/115/112 114/114/111
f 105/105/113 106/106/114 117/117/115 116/116/116
f 106/106/114 107/107/117 118/118/118 117/117/115
f 107/107/117 108/108/106 119/119/119 118/118/118
f 108/108/106 109/109/105 120/120/120 119/119/119
f 109/109/105 110/110/107 121/121/121 120/120/120
f 110/110/107 111/111/108 122/122/122 121/121/121
f 111/111/108 112/112/109 123/123/123 122/122/122
f 112/112/109 113/113/110 124/124/124 123/123/123
f 113/113/110 114/114/111 125/125/125 124/124/124
f 114/114/111 115/115/112 126/126/126 125/125/125
f 116/116/116 117/117/115 128/128/127 127/127/128
f 117/117/115 118/118/118 129/129/129 128/128/127
f 118/118/118 119/119/119 130/130/130 129/129/129
f 119/119/119 120/120/120 131/131/131 130/130/130
f 120/120/120 121/121/121 132/132/132 131/131/131
f 121/121/121 122/122/122 133/133/133 132/132/132
f 122/122/122 123/123/123 134/134/134 133/133/133
f 123/123/123 124/124/124 135/135/135 134/134/134
f 124/124/124 125/125/125 136/136/136 135/135/135
f 125/125/125 126/126/126 137/137/137 136/136/136
f 127/127/128 128/128/127 139/139/138 138/138/139
f 128/128/127 129/129/129 140/140/140 139/139/138
f 129/129/129 130/130/130 141/141/141 140/140/140
f 130/130/130 131/131/131 142/142/142 141/141/141
f 131/131/131 132/132/132 143/143/143 142/142/142
f 132/132/132 133/133/133 144/144/144 143/143/143
f 133/133/133 134/134/134 145/145/145 144/144/144
f 134/134/134 135/135/135 146/146/146 145/145/145
f 135/135/135 136/136/136 147/147/147 146/146/146
f 136/136/136 137/137/137 148/148/148 147/147/147
f 138/138/139 139/139/138 150/150/149 149/149/150
f 139/139/138 140/140/140 151/151/151 150/150/149
f 140/140/140 141/141/141 152/152/152 151/151/151
f 141/141/141 142/142/142 153/153/153 152/152/152
f 142/142/142 143/143/143 154/154/154 153/153/153
f 143/143/143 144/144/144 155/155/155 154/154/154
f 144/144/144 145/145/145 156/156/156 155/155/155
f 145/145/145 146/146/146 157/157/157 156/156/156
f 146/146/146 147/147/147 158/158/158 157/157/157
f 147/147/147 148/148/148 159/159/159 158/158/158
f 149/149/150 150/150/149 161/161/160 160/160/161
f 150/150/149 151/151/151 162/162/162 161/161/160
f 151/151/151 152/152/152 163/163/163 162/162/162
f 152/152/152 153/153/153 164/164/164 163/163/163
f 153/153/153 154/154/154 165/165/165 164/164/164
f 154/154/154 155/155/155 166/166/166 165/165/165
f 155/155/155 156/156/156 167/167/167 166/166/166
f 156/156/156 157/157/157 168/168/168 167/167/167
f 157/157/157 158/158/158 169/169/169 168/168/168
f 158/158/158 159/159/159 170/170/170 169/169/169
f 161/161/160 162/162/162 172/172/171 171/171/172
f 162/162/162 163/163/163 173/173/173 172/172/171
f 163/163/163 164/164/164 174/174/174 173/173/173
f 164/164/164 165/165/165 175/175/175 174/174/174
f 165/165/165 166/166/166 176/176/176 175/175/175
f 166/166/166 167/167/167 177/177/177 176/176/176
f 167/167/167 168/168/168 178/178/178 177/177/177
f 168/168/168 169/169/169 179/179/179 178/178/178
f 169/169/169 170/170/170 180/180/180 179/179/179
f 171/171/172 172/172/171 182/182/181 181/181/182
f 172/172/171 173/173/173 183/183/183 182/182/181
f 173/173/173 174/174/174 184/184/184 183/183/183
f 174/174/174 175/175/175 185/185/185 184/184/184
f 175/175/175 176/176/176 186/186/186 185/185/185
f 176/176/176 177/177/177 187/187/187 186/186/186
f 177/177/177 178/178/178 188/188/188 187/187/187
f 178/178/178 179/179/179 189/189/189 188/188/188
f 179/179/179 180/180/180 190/190/190 189/189/189
