# This file uses centimeters as units for non-parametric coordinates.

mtllib vidrio.mtl
g default
v -11.906179 3.011641 -6.355367
v -11.906392 1.415854 -6.355148
v -10.413453 1.415854 -6.356103
v -10.413668 3.011641 -6.356317
v -10.415063 1.415852 -8.979020
v -10.415286 3.011641 -8.978792
v -11.908009 1.415852 -8.978077
v -11.907793 3.011641 -8.977863
v -11.906394 1.415854 -6.362607
v -10.420809 1.415854 -6.363536
v -10.422422 1.415852 -8.971569
v -11.908018 1.415852 -8.970630
v -11.906180 3.011641 -6.362825
v -10.421026 3.011641 -6.363751
v -10.422634 3.011641 -8.971350
v -11.907792 3.011641 -8.970403
v -11.906179 3.011641 -6.355367
v -11.906392 1.415854 -6.355148
v -11.908009 1.415852 -8.978077
v -11.907793 3.011641 -8.977863
vt 0.505800 0.621700
vt 0.505800 0.621700
vt 0.505800 0.621700
vt 0.505800 0.621700
vt 0.505800 0.621700
vt 0.505800 0.621700
vt 0.505800 0.621700
vt 0.505800 0.621700
vt 0.505800 0.621700
vt 0.505800 0.621700
vt 0.505800 0.621700
vt 0.505800 0.621700
vt 0.505800 0.621700
vt 0.505800 0.621700
vt 0.505800 0.621700
vt 0.505800 0.621700
vt 0.505800 0.621700
vt 0.505800 0.621700
vt 0.505800 0.621700
vt 0.505800 0.621700
vt 0.505800 0.621700
vt 0.505800 0.621700
vt 0.505800 0.621700
vt 0.505800 0.621700
vt 0.505800 0.621700
vt 0.505800 0.621700
vt 0.505800 0.621700
vt 0.505800 0.621700
vt 0.505800 0.621700
vt 0.505800 0.621700
vt 0.505800 0.621700
vt 0.505800 0.621700
vt 0.505800 0.621700
vt 0.505800 0.621700
vt 0.505800 0.621700
vt 0.505800 0.621700
vt 0.505800 0.621700
vt 0.505800 0.621700
vt 0.505800 0.621700
vt 0.505800 0.621700
vt 0.505800 0.621700
vt 0.505800 0.621700
vt 0.505800 0.621700
vt 0.505800 0.621700
vt 0.505800 0.621700
vt 0.505800 0.621700
vt 0.505800 0.621700
vt 0.505800 0.621700
vt 0.505800 0.621700
vt 0.505800 0.621700
vt 0.505800 0.621700
vt 0.505800 0.621700
vt 0.505800 0.621700
vt 0.505800 0.621700
vt 0.505800 0.621700
vt 0.505800 0.621700
vt 0.505800 0.621700
vt 0.505800 0.621700
vt 0.505800 0.621700
vt 0.505800 0.621700
vt 0.505800 0.621700
vt 0.505800 0.621700
vt 0.505800 0.621700
vt 0.505800 0.621700
vt 0.505800 0.621700
vt 0.505800 0.621700
vt 0.505800 0.621700
vn 0.000615 0.000100 1.000000
vn 0.000615 0.000100 1.000000
vn 0.000615 0.000100 1.000000
vn 0.000615 0.000100 1.000000
vn 1.000000 0.000200 -0.000615
vn 1.000000 0.000200 -0.000615
vn 1.000000 0.000200 -0.000615
vn 1.000000 0.000200 -0.000615
vn -0.000615 0.000200 -1.000000
vn -0.000615 0.000200 -1.000000
vn -0.000615 0.000200 -1.000000
vn -0.000615 0.000200 -1.000000
vn 0.000000 -1.000000 0.000000
vn 0.000000 -1.000000 0.000000
vn 0.000000 -1.000000 0.000000
vn 0.000000 -1.000000 0.000000
vn 0.000000 -1.000000 0.000000
vn 0.000000 -1.000000 0.000000
vn 0.000000 -1.000000 0.000000
vn 0.000000 -1.000000 0.000000
vn 0.000000 -1.000000 0.000000
vn 0.000000 -1.000000 0.000000
vn 0.000000 -1.000000 0.000000
vn 0.000000 -1.000000 0.000000
vn -0.000615 -0.000100 -1.000000
vn -0.000615 -0.000100 -1.000000
vn -0.000615 -0.000100 -1.000000
vn -0.000615 -0.000100 -1.000000
vn -1.000000 -0.000100 0.000615
vn -1.000000 -0.000100 0.000615
vn -1.000000 -0.000100 0.000615
vn -1.000000 -0.000100 0.000615
vn 0.000615 -0.000200 1.000000
vn 0.000615 -0.000200 1.000000
vn 0.000615 -0.000200 1.000000
vn 0.000615 -0.000200 1.000000
vn 0.000000 1.000000 0.000000
vn 0.000000 1.000000 0.000000
vn 0.000000 1.000000 0.000000
vn 0.000000 1.000000 0.000000
vn 0.000000 1.000000 0.000000
vn 0.000000 1.000000 0.000000
vn 0.000000 1.000000 0.000000
vn 0.000000 1.000000 0.000000
vn 0.000000 1.000000 0.000000
vn 0.000000 1.000000 0.000000
vn 0.000000 1.000000 0.000000
vn 0.000000 1.000000 0.000000
vn -1.000000 0.000100 0.000215
vn -1.000000 0.000100 0.000215
vn -1.000000 0.000100 0.000215
vn -1.000000 0.000100 0.000215
vn 0.706762 0.000000 -0.707451
vn 0.706762 0.000000 -0.707451
vn 0.706762 0.000000 -0.707451
vn 0.706762 0.000000 -0.707451
vn 0.706762 0.000000 -0.707451
vn 0.706762 0.000000 -0.707451
vn 0.707451 0.000000 0.706762
vn 0.707451 0.000000 0.706762
vn 0.707451 0.000000 0.706762
vn 0.707451 0.000000 0.706762
vn 0.707451 0.000000 0.706762
vn 0.707451 0.000000 0.706762
vn -1.000000 0.000200 -0.000485
vn -1.000000 0.000200 -0.000485
vn -1.000000 0.000200 -0.000485
vn -1.000000 0.000200 -0.000485
s off
g polySurface72 polySurface71 polySurface68
usemtl vidrio1:phong1SG
f 17/1/1 18/2/2 3/3/3 4/4/4
f 5/5/5 6/6/6 4/7/7 3/8/8
f 6/9/9 5/10/10 19/11/11 20/12/12
usemtl vidrio1:initialShadingGroup
f 9/13/13 10/14/14 3/15/15 2/16/16
f 10/17/17 11/18/18 5/19/19 3/20/20
f 7/21/21 5/22/22 11/23/23 12/24/24
f 13/25/25 14/26/26 10/27/27 9/28/28
f 14/29/29 15/30/30 11/31/31 10/32/32
f 15/33/33 16/34/34 12/35/35 11/36/36
f 6/37/37 15/38/38 14/39/39 4/40/40
f 1/41/41 4/42/42 14/43/43 13/44/44
f 6/45/45 8/46/46 16/47/47 15/48/48
f 2/49/49 1/41/50 13/50/51 9/51/52
f 4/52/53 3/53/54 10/54/55
f 4/55/56 10/56/57 14/57/58
f 15/58/59 11/59/60 5/60/61
f 15/61/62 5/62/63 6/63/64
f 12/64/65 16/65/66 8/66/67 7/67/68
